<?xml version="1.0" encoding="utf-8"?>
<!-- Generator: Adobe Illustrator 19.2.1, SVG Export Plug-In . SVG Version: 6.00 Build 0)  -->
<!DOCTYPE svg PUBLIC "-//W3C//DTD SVG 1.1//EN" "http://www.w3.org/Graphics/SVG/1.1/DTD/svg11.dtd">
<svg version="1.1" id="Layer_1" xmlns="http://www.w3.org/2000/svg" xmlns:xlink="http://www.w3.org/1999/xlink" x="0px" y="0px"
	 viewBox="0 0 304 86.4" style="enable-background:new 0 0 304 86.4;" xml:space="preserve">
<style type="text/css">
	.st0{clip-path:url(#SVGID_2_);fill:url(#SVGID_3_);}
</style>
<g>
	<defs>
		<path id="SVGID_1_" d="M19.2,0.9C18.6,1,17.7,1,16.9,1c-0.5,0-0.9,0-1.2,0.1c-0.5,0-1,0.5-1,1c0,0.5,0.5,1,1,1
			c0.3,0,0.8,0,1.2-0.1c0.8,0,1.7-0.1,2.2-0.1c3.2-0.1,6.5,0,9.7,0.2l0,0c4.4,0.3,8.5,2.1,11.6,5c3.1,3.1,4.9,7.2,4.9,11.5V36
			c0,4.3-1.7,8.4-4.9,11.5c-3,3-7.1,4.8-11.6,5l0,0c-4.6,0.2-6.1,0.2-10.7,0l0,0C8.9,51.9,2,44.8,2,36v-2.4c0-4.3,1.7-8.4,4.9-11.5
			c3-3,7.1-4.8,11.6-5l0,0c2.3-0.1,5.1-0.2,8.7-0.2c0.5,0,0.9,0.4,0.9,0.9c0,0.5-0.4,0.9-0.9,0.9c-2.3,0-5.6,0-8.6,0.2
			c-4,0.3-7.7,1.9-10.4,4.5c-2.8,2.7-4.4,6.4-4.4,10.2V36c0,3.9,1.5,7.5,4.2,10.2c2.7,2.7,6.3,4.3,10.3,4.6c4.7,0.2,5.9,0.2,10.6,0
			c4-0.3,7.7-1.9,10.4-4.5c2.8-2.7,4.4-6.4,4.4-10.2V19.6c0-3.9-1.5-7.5-4.4-10.2c-2.7-2.7-6.4-4.3-10.5-4.5
			c-4.1-0.2-8.2-0.2-12.1-0.1C15.2,4.8,14,6.1,14,7.6c0,1.6,1.3,2.9,2.9,2.9c0.7,0,1.3,0,2,0c0.5,0,1.1,0,1.6,0c2.7,0,5.4,0,8.1,0.2
			c5.4,0.4,9.4,4.3,9.4,9.1V36c0,4.8-4,8.7-9.4,9.1c-4.4,0.2-5.5,0.2-9.9,0c-5.3-0.4-9.1-4.2-9.1-9.1v-2.4c0-4.8,4-8.7,9.4-9.1
			c2.7-0.1,6.7-0.2,9.2-0.2h0c0.5,0,1-0.4,1-1c0-0.5-0.4-1-1-1h0c-2.5,0-6.6,0-9.3,0.2h0c-6.4,0.4-11.3,5.2-11.3,11l0,2.4
			c0,6,4.6,10.6,11,11c4.5,0.2,5.6,0.2,10.1,0c6.4-0.4,11.3-5.2,11.3-11V19.6c0-5.9-4.8-10.6-11.3-11h0c-2.7-0.1-5.5-0.2-8.2-0.2
			c-0.6,0-1.1,0-1.7,0c-0.6,0-1.3,0-1.9,0c-0.5,0-0.9-0.4-0.9-0.9c0-0.5,0.4-0.9,0.8-0.9c3.9-0.2,7.9-0.1,11.9,0.1
			c7.4,0.5,12.9,6,12.9,12.8V36c0,6.8-5.6,12.3-12.9,12.8c-4.6,0.2-5.7,0.2-10.3,0c-7.2-0.5-12.7-6-12.7-12.8v-2.4
			c0-6.8,5.6-12.3,12.9-12.8c3-0.2,6.3-0.2,8.5-0.2c1.6,0,2.9-1.3,2.9-2.9c0-1.6-1.3-2.9-2.9-2.9c-3.7,0-6.5,0.1-8.8,0.2l-0.1,0
			c-4.9,0.3-9.4,2.3-12.8,5.6C1.9,24.2,0,28.7,0,33.6L0,36c0,9.9,7.7,17.9,18,18.5l0.1,0c2.3,0.1,3.9,0.2,5.5,0.2
			c1.6,0,3.1-0.1,5.5-0.2l0.1,0c4.9-0.3,9.5-2.3,12.8-5.6c3.5-3.4,5.5-8,5.5-12.9V19.6c0-4.9-1.9-9.5-5.5-12.9
			C38.5,3.4,34,1.4,29.1,1.1l-0.1,0c-2.4-0.1-4.8-0.2-7.2-0.2C20.9,0.9,20.1,0.9,19.2,0.9 M208,0.9c-0.6,0-1.5,0.1-2.3,0.1
			c-0.5,0-0.9,0-1.2,0.1c-0.5,0-1,0.5-1,1c0,0.5,0.5,1,1,1c0.3,0,0.8,0,1.2-0.1c0.8,0,1.7-0.1,2.2-0.1c3.2-0.1,6.5,0,9.7,0.2l0,0
			c4.4,0.3,8.5,2.1,11.6,5c3.1,3.1,4.9,7.2,4.9,11.5V36c0,4.3-1.7,8.4-4.9,11.5c-3,3-7.1,4.8-11.6,5l0,0c-4.6,0.2-6.1,0.2-10.7,0
			l0,0c-9.2-0.6-16.2-7.7-16.2-16.5v-2.4c0-4.3,1.7-8.4,4.9-11.5c3-3,7.1-4.8,11.6-5l0,0c2.3-0.1,5.1-0.2,8.7-0.2
			c0.5,0,0.9,0.4,0.9,0.9c0,0.5-0.4,0.9-0.9,0.9c-2.3,0-5.6,0-8.7,0.2c-4,0.3-7.7,1.9-10.5,4.5c-2.8,2.7-4.3,6.4-4.3,10.2V36
			c0,3.9,1.5,7.5,4.2,10.2c2.7,2.7,6.3,4.3,10.3,4.6c4.7,0.2,5.9,0.2,10.6,0c4-0.3,7.7-1.9,10.5-4.5c2.8-2.7,4.3-6.4,4.3-10.2V19.6
			c0-3.9-1.5-7.5-4.3-10.2c-2.7-2.7-6.5-4.3-10.5-4.5c-4.1-0.2-8.2-0.2-12.1-0.1c-1.5,0.1-2.8,1.3-2.8,2.9c0,1.6,1.3,2.9,2.9,2.9
			c0.7,0,1.3,0,2,0c0.5,0,1.1,0,1.6,0c2.7,0,5.4,0,8.1,0.2c5.4,0.4,9.4,4.3,9.4,9.1V36c0,4.8-4,8.7-9.4,9.1c-4.4,0.2-5.5,0.2-9.9,0
			c-5.3-0.4-9.1-4.2-9.1-9.1l0-2.4c0-4.8,4-8.7,9.4-9.1c2.7-0.1,6.7-0.2,9.2-0.2h0c0.5,0,1-0.4,1-1c0-0.5-0.4-1-1-1h0
			c-2.5,0-6.6,0-9.3,0.2h0c-6.4,0.4-11.3,5.2-11.3,11V36c0,6,4.6,10.6,11,11c4.5,0.2,5.6,0.2,10.1,0c6.4-0.4,11.3-5.2,11.3-11V19.6
			c0-5.9-4.8-10.6-11.3-11h0c-2.7-0.1-5.5-0.2-8.2-0.2c-0.6,0-1.1,0-1.7,0c-0.6,0-1.3,0-1.9,0c-0.5,0-0.9-0.4-0.9-0.9
			c0-0.5,0.4-0.9,0.8-0.9c3.9-0.2,7.9-0.1,11.9,0.1c7.4,0.5,12.9,6,12.9,12.8V36c0,6.8-5.6,12.3-12.9,12.8c-4.6,0.2-5.7,0.2-10.3,0
			c-7.2-0.5-12.7-6-12.7-12.8l0-2.4c0-6.8,5.6-12.3,12.9-12.8c3-0.2,6.3-0.2,8.5-0.2c1.6,0,2.9-1.3,2.9-2.9c0-1.6-1.3-2.9-2.9-2.9
			c-3.7,0-6.5,0.1-8.8,0.2l-0.1,0c-4.9,0.3-9.4,2.3-12.8,5.6c-3.5,3.5-5.5,8-5.5,12.9V36c0,9.9,7.7,17.9,18,18.5l0.1,0
			c2.3,0.1,3.9,0.2,5.5,0.2s3.1-0.1,5.5-0.2l0.1,0c4.9-0.3,9.4-2.3,12.8-5.6c3.5-3.4,5.5-8,5.5-12.9V19.6c0-4.9-1.9-9.5-5.5-12.9
			c-3.4-3.3-7.9-5.3-12.8-5.6l-0.1,0c-2.4-0.1-4.8-0.2-7.2-0.2C209.8,0.9,208.9,0.9,208,0.9 M71.8,1c-5,0.3-9.7,2.3-13.1,5.7
			c-3.5,3.5-5.5,8-5.5,12.8v65.1c0,0.5,0.4,1,1,1c0.5,0,1-0.4,1-1V19.5c0-8.8,7.3-16,16.7-16.6c4.6-0.2,8.4-0.2,13,0
			c9.4,0.5,16.7,7.8,16.7,16.6V36c0,8.8-7.3,16-16.7,16.6c-2.3,0.1-4.4,0.2-6.4,0.2h0c-2,0-6.1-0.1-6.9-0.2c-0.2,0-0.6-0.4-0.6-0.9
			c0-0.5,0.4-0.9,0.9-0.9c1.2,0,2.3,0,3.4,0.1c1.1,0,2.1,0.1,3.2,0.1h0c2.1,0,4.2-0.1,6.6-0.2c4-0.3,7.7-1.9,10.4-4.5
			c2.8-2.7,4.4-6.4,4.4-10.2V19.5c0-3.9-1.5-7.5-4.4-10.2C92.8,6.6,89.1,5,85,4.8c-4.7-0.2-8.5-0.2-13.2,0c-4,0.3-7.7,1.9-10.4,4.5
			c-2.8,2.7-4.4,6.4-4.4,10.2v64c0,1.6,1.3,2.8,2.8,2.9H60c1.6,0,2.8-1.3,2.8-2.9v-64c0-4.8,4-8.6,9.2-9c4.6-0.3,8.4-0.3,13,0
			c5.2,0.4,9.2,4.3,9.2,9V36c0,4.8-3.9,8.6-9.2,9c-4.3,0.3-9.2,0.3-14.1-0.1c-0.5,0-1,0.4-1.1,0.9c0,0.5,0.4,1,0.9,1.1
			c5,0.3,10,0.3,14.4,0.1c3-0.2,5.7-1.4,7.8-3.4c2.1-2,3.2-4.7,3.2-7.6V19.5c0-2.9-1.2-5.6-3.2-7.6c-2-2-4.8-3.2-7.8-3.4
			c-4.7-0.3-8.5-0.3-13.2,0c-6.3,0.5-11,5.2-11,11v64c0,0.5-0.4,0.9-0.9,0.9S59,84,59,83.5v-64c0-6.8,5.6-12.3,12.9-12.8
			c4.6-0.2,8.4-0.2,13,0c7.4,0.5,12.9,6,12.9,12.8V36c0,6.8-5.6,12.3-12.9,12.8c-2.3,0.1-4.4,0.2-6.5,0.2h0c-1,0-2,0-3.1-0.1
			c-1.1,0-2.3-0.1-3.5-0.1c-1.6,0-2.9,1.3-2.9,2.9c0,1.4,1.1,2.7,2.5,2.8c0.8,0.1,5,0.2,7,0.2h0c2.1,0,4.2-0.1,6.5-0.2
			c5-0.3,9.7-2.3,13.1-5.7c3.5-3.5,5.5-8,5.5-12.8V19.5c0-4.8-1.9-9.4-5.5-12.8C94.7,3.3,90.1,1.3,85,1c-2.3-0.1-4.5-0.2-6.6-0.2
			C76.3,0.8,74.2,0.9,71.8,1 M128.1,1c-5,0.3-9.7,2.3-13.1,5.8c-3.5,3.5-5.5,8.1-5.5,12.9v16.3c0,4.8,1.9,9.4,5.4,12.9
			c3.5,3.5,8.1,5.5,13.1,5.7c2.4,0.1,6.1,0.2,9.9,0.2c3.7,0,7.3-0.1,9.6-0.2l0.2,0c0.4,0,0.7,0,1.1-0.1c0.8-0.1,1.4-0.6,1.9-1.2
			c0.4-0.6,0.6-1.4,0.5-2.2c-0.3-1.5-1.6-2.5-3.2-2.4l-0.2,0c-0.1,0-0.2,0-0.3,0c-4.7,0.2-14.7,0.3-19.3,0.1
			c-7.3-0.4-12.9-6-12.9-12.9V19.7c0-6.8,5.6-12.3,12.9-12.8c4.6-0.2,5.7-0.2,10.3,0c7.2,0.5,12.7,6,12.7,12.8V22
			c0,6.8-5.6,12.3-12.9,12.8c-2.9,0.2-6.3,0.2-8.5,0.2c-0.5,0-0.9-0.4-0.9-0.9c0-0.5,0.4-0.9,0.9-0.9h0.9c2.6,0,4.9,0,7.8-0.2
			c3-0.2,5.7-1.4,7.8-3.4c2.1-2,3.2-4.7,3.2-7.6v-2.4c0-2.9-1.1-5.6-3.1-7.7c-2-2-4.7-3.2-7.7-3.5c-4.7-0.3-5.9-0.3-10.6,0
			c-6.3,0.5-11,5.3-11,11.1v16.3c0,2.9,1.2,5.6,3.2,7.7c2,2,4.8,3.2,7.8,3.4c4.7,0.3,14.9,0.3,19.5,0c0.3,0,1.2-0.1,1.7-0.1l0.2,0
			c0.5,0,1-0.5,0.9-1.1c0-0.5-0.5-1-1.1-0.9l-0.2,0c-0.5,0-1.4,0.1-1.7,0.1c-4.6,0.3-14.6,0.3-19.3,0c-5.2-0.3-9.2-4.3-9.2-9.1V19.7
			c0-4.8,3.9-8.8,9.2-9.1c4.6-0.3,5.7-0.3,10.3,0c5.2,0.4,8.9,4.2,8.9,9.1V22c0,4.8-3.9,8.6-9.2,9c-2.7,0.2-5,0.2-7.6,0.2l-0.9,0
			c-1.6,0-2.9,1.3-2.9,2.9c0,1.6,1.3,2.9,2.9,2.9c2.3,0,5.6,0,8.6-0.2c4-0.3,7.7-1.9,10.4-4.5c2.8-2.7,4.4-6.4,4.4-10.2v-2.4
			c0-3.9-1.5-7.5-4.2-10.2c-2.7-2.7-6.3-4.3-10.3-4.6c-4.7-0.2-5.9-0.2-10.6,0c-4,0.3-7.7,1.9-10.4,4.5c-2.8,2.7-4.4,6.4-4.3,10.2
			v16.3c0,3.9,1.5,7.5,4.3,10.3c2.8,2.7,6.5,4.4,10.5,4.6c4.7,0.2,14.8,0.1,19.5-0.1c0.1,0,0.2,0,0.3,0l0.2,0c0.5,0,1.1,0.2,1.2,0.7
			c0,0.3,0,0.5-0.2,0.7c-0.1,0.2-0.3,0.3-0.6,0.4c-0.3,0-0.6,0.1-0.9,0.1l-0.2,0c-4.6,0.2-14.7,0.2-19.3,0
			c-9.4-0.4-16.7-7.7-16.7-16.7V19.7c0-8.8,7.3-16.1,16.7-16.7c4.6-0.2,5.8-0.2,10.3,0c9.4,0.5,16.4,7.7,16.4,16.7V22
			c0,8.8-7.3,16-16.7,16.6c-2.6,0.1-7.7,0.2-10.4,0.2h0c-0.5,0-1,0.4-1,1c0,0.5,0.4,1,1,1c2.7,0,7.9-0.1,10.5-0.2
			c5-0.3,9.7-2.3,13.1-5.7c3.5-3.5,5.5-8,5.5-12.8v-2.4c0-4.8-1.9-9.4-5.3-12.9c-3.4-3.4-8-5.5-13-5.8c-2.3-0.1-3.8-0.2-5.3-0.2
			C131.9,0.8,130.4,0.9,128.1,1 M180.6,1L180.6,1c-5,0.3-9.5,2.3-12.9,5.6c-3.5,3.5-5.5,8-5.5,12.9v33.8c0,0.5,0.4,1,1,1
			c0.5,0,1-0.4,1-1V19.5c0-4.3,1.7-8.4,4.9-11.5c3-3,7.1-4.8,11.6-5l0,0c3.2-0.2,6.5-0.2,9.7-0.2c0.4,0,0.9,0,1.4,0.1
			c0.3,0,0.6,0,0.8,0c0.4,0,0.8,0.3,0.8,0.8c0,0.2,0,0.5-0.2,0.7c-0.2,0.2-0.3,0.3-1.2,0.3c-1.3,0-2.6-0.1-3.9-0.1
			c-2.4,0-4.9,0.1-7.4,0.2c-4,0.3-7.7,1.9-10.4,4.5c-2.8,2.7-4.3,6.4-4.3,10.2v32.3c0,1.6,1.3,3,2.9,3c1.6,0,2.9-1.4,2.9-3V19.5
			c0-4.8,4-8.7,9.4-9.1c2.7-0.1,5.4-0.2,8.1-0.2c0.9,0,2.5,0.1,3.6,0.1l0.8,0c0.5,0,1-0.4,1-1c0-0.5-0.4-1-1-1l-0.8,0
			c-1.1,0-2.7-0.1-3.7-0.1c-2.7,0-5.5,0-8.2,0.2h0c-6.4,0.4-11.3,5.2-11.3,11v32.3c0,0.5-0.4,1-0.9,1c-0.5,0-0.9-0.5-0.9-1V19.5
			c0-6.8,5.6-12.3,12.9-12.8c2.4-0.1,4.9-0.2,7.3-0.2c1.3,0,2.6,0,3.9,0.1c1,0,2,0,2.8-1.1c0.5-0.6,0.7-1.4,0.6-2.1
			c-0.2-1.4-1.3-2.4-2.7-2.5c-0.3,0-0.5,0-0.8,0c-0.6,0-1.1,0-1.5-0.1c-0.9,0-1.7,0-2.6,0C185.5,0.8,183,0.8,180.6,1 M277,13.5v27.8
			c0,2.2-1.8,4-4,4c-2.2,0-4-1.8-4-4V13.5C269.1,6.1,263,0,255.6,0c-7.4,0-13.5,6.1-13.5,13.5v39.9c0,0.5,0.4,1,1,1s1-0.4,1-1V13.5
			c0-6.3,5.2-11.5,11.5-11.5c6.3,0,11.5,5.2,11.5,11.5v27.8c0,3.3,2.7,6,6,6c3.3,0,6-2.7,6-6V13.5C279,7.1,284.2,2,290.5,2
			S302,7.1,302,13.5v38.3c0,0.5-0.4,0.9-0.9,0.9s-0.9-0.4-0.9-0.9V13.5c0-5.4-4.4-9.7-9.7-9.7c-5.4,0-9.7,4.4-9.7,9.7l0,27.8
			c0,4.3-3.5,7.7-7.7,7.7c-4.3,0-7.7-3.5-7.7-7.7V13.5c0-5.4-4.4-9.7-9.7-9.7c-5.4,0-9.7,4.4-9.7,9.7v38.3c0,1.6,1.3,2.9,2.9,2.9
			c1.6,0,2.9-1.3,2.9-2.9V13.5c0-2.2,1.8-4,4-4c2.2,0,4,1.8,4,4l0,27.8c0,7.4,6.1,13.5,13.5,13.5c7.4,0,13.5-6.1,13.5-13.5V13.5
			c0-2.2,1.8-4,4-4s4,1.8,4,4v39.9c0,0.5,0.4,1,1,1c0.5,0,1-0.4,1-1V13.5c0-3.3-2.7-6-6-6c-3.3,0-6,2.7-6,6v27.8
			c0,6.3-5.2,11.5-11.5,11.5c-6.3,0-11.5-5.2-11.5-11.5V13.5c0-3.3-2.7-6-6-6s-6,2.7-6,6v38.3c0,0.5-0.4,0.9-0.9,0.9
			c-0.5,0-0.9-0.4-0.9-0.9V13.5c0-4.3,3.5-7.7,7.7-7.7c4.3,0,7.7,3.5,7.7,7.7v27.8c0,5.4,4.4,9.7,9.7,9.7c5.4,0,9.7-4.4,9.7-9.7
			l0-27.8c0-4.3,3.5-7.7,7.7-7.7c4.3,0,7.7,3.5,7.7,7.7l0,38.3c0,1.6,1.3,2.9,2.9,2.9c1.6,0,2.8-1.2,2.9-2.8V13.3
			C303.9,5.9,297.9,0,290.5,0C283.1,0,277,6.1,277,13.5"/>
	</defs>
	<clipPath id="SVGID_2_">
		<use xlink:href="#SVGID_1_"  style="overflow:visible;"/>
	</clipPath>
	
		<linearGradient id="SVGID_3_" gradientUnits="userSpaceOnUse" x1="-442.6402" y1="463.9955" x2="-441.6402" y2="463.9955" gradientTransform="matrix(316.5992 0 0 316.5992 140133.0938 -146857.3906)">
		<stop  offset="0" style="stop-color:#58084A"/>
		<stop  offset="4.562380e-003" style="stop-color:#58084A"/>
		<stop  offset="2.809140e-002" style="stop-color:#58084A"/>
		<stop  offset="0.2363" style="stop-color:#74166A"/>
		<stop  offset="0.5055" style="stop-color:#C588BB"/>
		<stop  offset="0.5862" style="stop-color:#D58991"/>
		<stop  offset="0.6641" style="stop-color:#E28863"/>
		<stop  offset="0.7282" style="stop-color:#EA8839"/>
		<stop  offset="0.776" style="stop-color:#EF8716"/>
		<stop  offset="0.8022" style="stop-color:#F18700"/>
		<stop  offset="0.967" style="stop-color:#EA5B0C"/>
		<stop  offset="1" style="stop-color:#EA5B0C"/>
	</linearGradient>
	<rect y="0" class="st0" width="304" height="86.4"/>
</g>
</svg>
